<svg width="597" height="90" viewBox="0 0 597 90" fill="none" xmlns="http://www.w3.org/2000/svg">
<path d="M46.328 18.776C44.8773 15.96 42.2747 13.656 38.52 11.864C34.7653 9.98666 30.8827 9.048 26.872 9.048C22.52 9.048 18.8507 10.2427 15.864 12.632C12.9627 15.0213 11.512 18.52 11.512 23.128C11.512 26.6267 12.5787 29.528 14.712 31.832C16.9307 34.0507 19.6613 35.6293 22.904 36.568C26.1467 37.4213 29.688 38.488 33.528 39.768C37.368 41.048 40.9093 42.3707 44.152 43.736C47.3947 45.1013 50.0827 47.448 52.216 50.776C54.4347 54.104 55.544 58.2427 55.544 63.192C55.544 67.6293 54.6907 71.5547 52.984 74.968C51.2773 78.296 48.9733 80.8987 46.072 82.776C43.1707 84.6533 40.0133 86.0613 36.6 87C33.272 87.8533 29.7307 88.28 25.976 88.28C19.32 88.28 13.432 87.128 8.312 84.824C3.27733 82.4347 0.76 79.576 0.76 76.248C0.76 75.1387 1.10133 74.1573 1.784 73.304C2.552 72.3653 3.27733 71.6827 3.96 71.256C4.64267 70.8293 5.752 70.232 7.288 69.464C8.90933 72.6213 11.8107 75.224 15.992 77.272C20.2587 79.2347 24.568 80.216 28.92 80.216C33.6987 80.216 37.7947 78.936 41.208 76.376C44.6213 73.7307 46.328 69.976 46.328 65.112C46.328 61.1013 44.792 57.944 41.72 55.64C38.7333 53.2507 35.064 51.4587 30.712 50.264C26.4453 49.0693 22.136 47.7467 17.784 46.296C13.5173 44.8453 9.848 42.4133 6.776 39C3.78933 35.5013 2.296 30.8933 2.296 25.176C2.296 17.3253 4.856 11.3093 9.976 7.128C15.1813 2.94666 21.7947 0.855995 29.816 0.855995C35.704 0.855995 41.1227 1.87999 46.072 3.92799C51.1067 5.976 53.624 8.792 53.624 12.376C53.624 15.7893 51.192 17.9227 46.328 18.776ZM92.098 56.28C96.5353 56.28 99.9913 55.0427 102.466 52.568C104.941 50.008 106.178 46.5947 106.178 42.328C106.178 36.44 104.77 32.3867 101.954 30.168C99.2233 27.9493 94.914 26.84 89.026 26.84C88.6847 26.84 86.338 26.968 81.986 27.224C82.242 32.856 82.37 39.2987 82.37 46.552V54.232C85.1007 55.5973 88.3433 56.28 92.098 56.28ZM73.026 63.96V43.992C73.026 34.776 72.5993 27.1387 71.746 21.08C76.354 20.312 81.6873 19.928 87.746 19.928C106.861 19.928 116.418 27.1813 116.418 41.688C116.418 48.7707 114.242 54.1467 109.89 57.816C105.623 61.4853 100.589 63.32 94.786 63.32C89.7513 63.32 85.6127 62.2533 82.37 60.12V67.16C82.37 75.9493 83.0527 82.4347 84.418 86.616C82.882 87.0427 81.0047 87.256 78.786 87.256C76.482 87.256 74.9033 86.8293 74.05 85.976C73.282 85.1227 72.898 83.672 72.898 81.624C72.898 80.6 72.898 77.9973 72.898 73.816C72.9833 69.6347 73.026 66.3493 73.026 63.96ZM140.614 28.12C140.87 30.168 140.998 36.7813 140.998 47.96H149.19C154.907 47.96 159.003 47.832 161.478 47.576C161.734 48.2587 161.862 49.1973 161.862 50.392C161.862 52.0987 161.478 53.2933 160.71 53.976C160.027 54.5733 158.918 54.9147 157.382 55C155.59 55.0853 153.158 55.128 150.086 55.128H140.998C140.998 68.8667 141.254 77.144 141.766 79.96C144.838 80.1307 147.313 80.216 149.19 80.216C160.454 80.216 167.835 79.448 171.334 77.912C171.931 79.448 172.23 81.0693 172.23 82.776C172.23 84.1413 171.889 85.1227 171.206 85.72C169.926 86.6587 164.123 87.128 153.798 87.128C151.75 87.128 148.465 87.0853 143.942 87C139.419 87 137.073 87 136.902 87C134.769 86.9147 133.318 86.4453 132.55 85.592C131.867 84.7387 131.526 83.3307 131.526 81.368C131.526 80.1733 131.569 77.5707 131.654 73.56C131.739 69.464 131.782 66.264 131.782 63.96V44.376C131.782 34.648 131.27 27.0107 130.246 21.464C138.609 20.8667 146.417 20.568 153.67 20.568C163.995 20.568 169.798 21.08 171.078 22.104C171.761 22.7013 172.102 23.6827 172.102 25.048C172.102 26.7547 171.803 28.376 171.206 29.912C167.11 28.5467 160.71 27.864 152.006 27.864C148.678 27.864 144.881 27.9493 140.614 28.12ZM216.808 59.992C215.187 56.152 211.731 47.064 206.44 32.728C202.173 45.016 198.803 54.0613 196.328 59.864C201.448 60.0347 205.373 60.12 208.104 60.12C212.115 60.12 215.016 60.0773 216.808 59.992ZM206.056 66.904C204.264 66.904 200.125 66.8187 193.64 66.648C193.213 67.672 192.275 69.9333 190.824 73.432C189.459 76.9307 188.349 79.8747 187.496 82.264C186.643 84.568 185.917 86.8293 185.32 89.048C180.285 88.3653 177.768 87.0427 177.768 85.08C177.768 84.2267 178.152 82.8187 178.92 80.856C179.773 78.8933 181.181 75.6507 183.144 71.128C185.192 66.52 187.112 61.912 188.904 57.304C195.56 40.152 199.912 28.12 201.96 21.208C203.325 20.952 204.904 20.824 206.696 20.824C208.573 20.824 209.896 21.1227 210.664 21.72C211.432 22.232 212.285 23.7253 213.224 26.2C213.907 27.992 215.741 32.984 218.728 41.176C221.8 49.2827 224.189 55.512 225.896 59.864C229.992 69.9333 234.003 78.68 237.928 86.104C235.539 87.2987 233.619 87.896 232.168 87.896C229.608 87.896 227.859 87.0427 226.92 85.336C226.408 84.1413 223.891 77.912 219.368 66.648C212.029 66.8187 207.592 66.904 206.056 66.904ZM286.67 78.04C288.547 79.9173 290.595 80.856 292.814 80.856C293.241 80.856 294.137 80.7707 295.502 80.6C296.099 81.7947 296.398 82.904 296.398 83.928C296.398 86.5733 293.625 87.896 288.078 87.896C285.603 87.896 283.214 87 280.91 85.208C278.606 83.3307 276.387 80.6853 274.254 77.272C272.121 73.7733 270.457 70.872 269.262 68.568C268.153 66.1787 266.787 63.1493 265.166 59.48C263.545 59.1387 262.734 58.2853 262.734 56.92C262.734 56.0667 263.033 54.7867 263.63 53.08C265.507 53.5067 267.129 53.72 268.494 53.72C272.419 53.72 275.619 52.5253 278.094 50.136C280.569 47.6613 281.806 44.3333 281.806 40.152C281.806 35.2027 280.441 31.7467 277.71 29.784C274.979 27.8213 270.798 26.84 265.166 26.84C264.654 26.84 262.094 26.968 257.486 27.224C257.827 31.1493 257.998 37.848 257.998 47.32V67.032C257.998 75.9067 258.638 82.4347 259.918 86.616C258.467 87.0427 256.59 87.256 254.286 87.256C251.982 87.256 250.403 86.8293 249.55 85.976C248.782 85.1227 248.398 83.672 248.398 81.624C248.398 80.6 248.441 77.9973 248.526 73.816C248.611 69.6347 248.654 66.3493 248.654 63.96V43.992C248.654 34.6053 248.185 26.968 247.246 21.08C251.854 20.312 257.23 19.928 263.374 19.928C282.489 19.928 292.046 26.6267 292.046 40.024C292.046 45.3147 290.51 49.624 287.438 52.952C284.451 56.28 280.441 58.4987 275.406 59.608C280.611 69.592 284.366 75.736 286.67 78.04ZM321.498 56.152V67.032C321.498 75.992 322.181 82.5627 323.546 86.744C321.839 87.256 319.962 87.512 317.914 87.512C315.61 87.512 314.031 87.0853 313.178 86.232C312.41 85.3787 312.026 83.9707 312.026 82.008C312.026 80.8987 312.069 78.2533 312.154 74.072C312.239 69.8907 312.282 66.648 312.282 64.344V44.248C312.282 34.6053 311.77 27.0107 310.746 21.464C319.109 20.8667 326.917 20.568 334.17 20.568C344.495 20.568 350.298 21.08 351.578 22.104C352.261 22.7013 352.602 23.6827 352.602 25.048C352.602 26.7547 352.303 28.376 351.706 29.912C347.61 28.5467 341.21 27.864 332.506 27.864C329.69 27.864 325.893 27.9493 321.114 28.12C321.37 30.424 321.498 34.6907 321.498 40.92V48.984H329.69C335.407 48.984 339.503 48.856 341.978 48.6C342.234 49.2827 342.362 50.264 342.362 51.544C342.362 53.6773 341.807 55 340.698 55.512C339.589 55.9387 337.071 56.152 333.146 56.152H321.498ZM402.545 78.04C404.422 79.9173 406.47 80.856 408.689 80.856C409.116 80.856 410.012 80.7707 411.377 80.6C411.974 81.7947 412.273 82.904 412.273 83.928C412.273 86.5733 409.5 87.896 403.953 87.896C401.478 87.896 399.089 87 396.785 85.208C394.481 83.3307 392.262 80.6853 390.129 77.272C387.996 73.7733 386.332 70.872 385.137 68.568C384.028 66.1787 382.662 63.1493 381.041 59.48C379.42 59.1387 378.609 58.2853 378.609 56.92C378.609 56.0667 378.908 54.7867 379.505 53.08C381.382 53.5067 383.004 53.72 384.369 53.72C388.294 53.72 391.494 52.5253 393.969 50.136C396.444 47.6613 397.681 44.3333 397.681 40.152C397.681 35.2027 396.316 31.7467 393.585 29.784C390.854 27.8213 386.673 26.84 381.041 26.84C380.529 26.84 377.969 26.968 373.361 27.224C373.702 31.1493 373.873 37.848 373.873 47.32V67.032C373.873 75.9067 374.513 82.4347 375.793 86.616C374.342 87.0427 372.465 87.256 370.161 87.256C367.857 87.256 366.278 86.8293 365.425 85.976C364.657 85.1227 364.273 83.672 364.273 81.624C364.273 80.6 364.316 77.9973 364.401 73.816C364.486 69.6347 364.529 66.3493 364.529 63.96V43.992C364.529 34.6053 364.06 26.968 363.121 21.08C367.729 20.312 373.105 19.928 379.249 19.928C398.364 19.928 407.921 26.6267 407.921 40.024C407.921 45.3147 406.385 49.624 403.313 52.952C400.326 56.28 396.316 58.4987 391.281 59.608C396.486 69.592 400.241 75.736 402.545 78.04ZM436.989 28.12C437.245 30.168 437.373 36.7813 437.373 47.96H445.565C451.282 47.96 455.378 47.832 457.853 47.576C458.109 48.2587 458.237 49.1973 458.237 50.392C458.237 52.0987 457.853 53.2933 457.085 53.976C456.402 54.5733 455.293 54.9147 453.757 55C451.965 55.0853 449.533 55.128 446.461 55.128H437.373C437.373 68.8667 437.629 77.144 438.141 79.96C441.213 80.1307 443.688 80.216 445.565 80.216C456.829 80.216 464.21 79.448 467.709 77.912C468.306 79.448 468.605 81.0693 468.605 82.776C468.605 84.1413 468.264 85.1227 467.581 85.72C466.301 86.6587 460.498 87.128 450.173 87.128C448.125 87.128 444.84 87.0853 440.317 87C435.794 87 433.448 87 433.277 87C431.144 86.9147 429.693 86.4453 428.925 85.592C428.242 84.7387 427.901 83.3307 427.901 81.368C427.901 80.1733 427.944 77.5707 428.029 73.56C428.114 69.464 428.157 66.264 428.157 63.96V44.376C428.157 34.648 427.645 27.0107 426.621 21.464C434.984 20.8667 442.792 20.568 450.045 20.568C460.37 20.568 466.173 21.08 467.453 22.104C468.136 22.7013 468.477 23.6827 468.477 25.048C468.477 26.7547 468.178 28.376 467.581 29.912C463.485 28.5467 457.085 27.864 448.381 27.864C445.053 27.864 441.256 27.9493 436.989 28.12ZM517.151 35.288C515.956 32.8987 513.866 30.936 510.879 29.4C507.892 27.7787 504.778 26.968 501.535 26.968C498.122 26.968 495.178 27.864 492.703 29.656C490.314 31.3627 489.119 33.88 489.119 37.208C489.119 39.8533 490.015 42.0293 491.807 43.736C493.599 45.3573 495.818 46.5093 498.463 47.192C501.194 47.8747 504.095 48.6853 507.167 49.624C510.324 50.5627 513.226 51.5867 515.871 52.696C518.602 53.72 520.863 55.5547 522.655 58.2C524.447 60.76 525.343 63.96 525.343 67.8C525.343 74.712 522.911 79.7893 518.047 83.032C513.268 86.2747 507.423 87.896 500.511 87.896C494.879 87.896 489.887 86.9573 485.535 85.08C481.268 83.2027 479.135 80.8987 479.135 78.168C479.135 76.0347 481.055 74.0293 484.895 72.152C486.26 74.712 488.65 76.8027 492.063 78.424C495.562 80.0453 499.146 80.856 502.815 80.856C506.57 80.856 509.812 79.96 512.543 78.168C515.359 76.2907 516.767 73.6453 516.767 70.232C516.767 67.2453 515.53 64.8987 513.055 63.192C510.58 61.4 507.551 60.0773 503.967 59.224C500.468 58.3707 496.927 57.3893 493.343 56.28C489.844 55.0853 486.858 53.1227 484.383 50.392C481.908 47.576 480.671 43.9067 480.671 39.384C480.671 33.0693 482.847 28.248 487.199 24.92C491.551 21.592 497.098 19.928 503.839 19.928C508.788 19.928 513.311 20.7813 517.407 22.488C521.588 24.1093 523.679 26.4133 523.679 29.4C523.679 32.472 521.503 34.4347 517.151 35.288ZM543.916 63.96V43.992C543.916 35.1173 543.66 27.4373 543.148 20.952C544.684 20.696 546.305 20.568 548.012 20.568C552.023 20.568 554.028 21.848 554.028 24.408C554.028 24.7493 553.943 26.1147 553.772 28.504C553.601 30.8933 553.431 33.88 553.26 37.464C553.175 41.048 553.132 44.4613 553.132 47.704C556.716 47.7893 562.092 47.832 569.26 47.832C576.172 47.832 581.377 47.7893 584.876 47.704V43.608C584.791 34.648 584.535 27.096 584.108 20.952C585.644 20.696 587.265 20.568 588.972 20.568C592.983 20.568 594.988 21.848 594.988 24.408C594.988 24.7493 594.903 26.072 594.732 28.376C594.561 30.68 594.391 33.5387 594.22 36.952C594.135 40.3653 594.092 43.608 594.092 46.68V66.776C594.092 75.736 594.775 82.3067 596.14 86.488C594.86 87 592.983 87.256 590.508 87.256C588.204 87.256 586.625 86.8293 585.772 85.976C585.004 85.1227 584.62 83.672 584.62 81.624C584.62 80.6 584.663 77.9973 584.748 73.816C584.833 69.6347 584.876 66.3493 584.876 63.96V54.488C581.292 54.5733 576.044 54.616 569.132 54.616C561.964 54.616 556.631 54.5733 553.132 54.488V66.776C553.132 75.736 553.815 82.3067 555.18 86.488C553.9 87 552.023 87.256 549.548 87.256C547.244 87.256 545.665 86.8293 544.812 85.976C544.044 85.1227 543.66 83.672 543.66 81.624C543.66 80.6 543.703 77.9973 543.788 73.816C543.873 69.6347 543.916 66.3493 543.916 63.96Z" fill="white"/>
</svg>
