<svg width="834" height="160" viewBox="0 0 834 160" fill="none" xmlns="http://www.w3.org/2000/svg">
<path d="M677 0L630 124L0 152L484.652 82.9832L677 0Z" fill="#0C915E"/>
<path d="M833.581 140L523.581 146L0 152L630 124L677 0L833.581 140Z" fill="#62E5B2"/>
<path d="M80.328 55.776C78.8773 52.96 76.2747 50.656 72.52 48.864C68.7653 46.9867 64.8827 46.048 60.872 46.048C56.52 46.048 52.8507 47.2427 49.864 49.632C46.9627 52.0213 45.512 55.52 45.512 60.128C45.512 63.6267 46.5787 66.528 48.712 68.832C50.9307 71.0507 53.6613 72.6293 56.904 73.568C60.1467 74.4213 63.688 75.488 67.528 76.768C71.368 78.048 74.9093 79.3707 78.152 80.736C81.3947 82.1013 84.0827 84.448 86.216 87.776C88.4347 91.104 89.544 95.2427 89.544 100.192C89.544 104.629 88.6907 108.555 86.984 111.968C85.2773 115.296 82.9733 117.899 80.072 119.776C77.1707 121.653 74.0133 123.061 70.6 124C67.272 124.853 63.7307 125.28 59.976 125.28C53.32 125.28 47.432 124.128 42.312 121.824C37.2773 119.435 34.76 116.576 34.76 113.248C34.76 112.139 35.1013 111.157 35.784 110.304C36.552 109.365 37.2773 108.683 37.96 108.256C38.6427 107.829 39.752 107.232 41.288 106.464C42.9093 109.621 45.8107 112.224 49.992 114.272C54.2587 116.235 58.568 117.216 62.92 117.216C67.6987 117.216 71.7947 115.936 75.208 113.376C78.6213 110.731 80.328 106.976 80.328 102.112C80.328 98.1013 78.792 94.944 75.72 92.64C72.7333 90.2507 69.064 88.4587 64.712 87.264C60.4453 86.0693 56.136 84.7467 51.784 83.296C47.5173 81.8453 43.848 79.4133 40.776 76C37.7893 72.5013 36.296 67.8933 36.296 62.176C36.296 54.3253 38.856 48.3093 43.976 44.128C49.1813 39.9467 55.7947 37.856 63.816 37.856C69.704 37.856 75.1227 38.88 80.072 40.928C85.1067 42.976 87.624 45.792 87.624 49.376C87.624 52.7893 85.192 54.9227 80.328 55.776ZM126.098 93.28C130.535 93.28 133.991 92.0427 136.466 89.568C138.941 87.008 140.178 83.5947 140.178 79.328C140.178 73.44 138.77 69.3867 135.954 67.168C133.223 64.9493 128.914 63.84 123.026 63.84C122.685 63.84 120.338 63.968 115.986 64.224C116.242 69.856 116.37 76.2987 116.37 83.552V91.232C119.101 92.5973 122.343 93.28 126.098 93.28ZM107.026 100.96V80.992C107.026 71.776 106.599 64.1387 105.746 58.08C110.354 57.312 115.687 56.928 121.746 56.928C140.861 56.928 150.418 64.1813 150.418 78.688C150.418 85.7707 148.242 91.1467 143.89 94.816C139.623 98.4853 134.589 100.32 128.786 100.32C123.751 100.32 119.613 99.2533 116.37 97.12V104.16C116.37 112.949 117.053 119.435 118.418 123.616C116.882 124.043 115.005 124.256 112.786 124.256C110.482 124.256 108.903 123.829 108.05 122.976C107.282 122.123 106.898 120.672 106.898 118.624C106.898 117.6 106.898 114.997 106.898 110.816C106.983 106.635 107.026 103.349 107.026 100.96ZM174.614 65.12C174.87 67.168 174.998 73.7813 174.998 84.96H183.19C188.907 84.96 193.003 84.832 195.478 84.576C195.734 85.2587 195.862 86.1973 195.862 87.392C195.862 89.0987 195.478 90.2933 194.71 90.976C194.027 91.5733 192.918 91.9147 191.382 92C189.59 92.0853 187.158 92.128 184.086 92.128H174.998C174.998 105.867 175.254 114.144 175.766 116.96C178.838 117.131 181.313 117.216 183.19 117.216C194.454 117.216 201.835 116.448 205.334 114.912C205.931 116.448 206.23 118.069 206.23 119.776C206.23 121.141 205.889 122.123 205.206 122.72C203.926 123.659 198.123 124.128 187.798 124.128C185.75 124.128 182.465 124.085 177.942 124C173.419 124 171.073 124 170.902 124C168.769 123.915 167.318 123.445 166.55 122.592C165.867 121.739 165.526 120.331 165.526 118.368C165.526 117.173 165.569 114.571 165.654 110.56C165.739 106.464 165.782 103.264 165.782 100.96V81.376C165.782 71.648 165.27 64.0107 164.246 58.464C172.609 57.8667 180.417 57.568 187.67 57.568C197.995 57.568 203.798 58.08 205.078 59.104C205.761 59.7013 206.102 60.6827 206.102 62.048C206.102 63.7547 205.803 65.376 205.206 66.912C201.11 65.5467 194.71 64.864 186.006 64.864C182.678 64.864 178.881 64.9493 174.614 65.12ZM250.808 96.992C249.187 93.152 245.731 84.064 240.44 69.728C236.173 82.016 232.803 91.0613 230.328 96.864C235.448 97.0347 239.373 97.12 242.104 97.12C246.115 97.12 249.016 97.0773 250.808 96.992ZM240.056 103.904C238.264 103.904 234.125 103.819 227.64 103.648C227.213 104.672 226.275 106.933 224.824 110.432C223.459 113.931 222.349 116.875 221.496 119.264C220.643 121.568 219.917 123.829 219.32 126.048C214.285 125.365 211.768 124.043 211.768 122.08C211.768 121.227 212.152 119.819 212.92 117.856C213.773 115.893 215.181 112.651 217.144 108.128C219.192 103.52 221.112 98.912 222.904 94.304C229.56 77.152 233.912 65.12 235.96 58.208C237.325 57.952 238.904 57.824 240.696 57.824C242.573 57.824 243.896 58.1227 244.664 58.72C245.432 59.232 246.285 60.7253 247.224 63.2C247.907 64.992 249.741 69.984 252.728 78.176C255.8 86.2827 258.189 92.512 259.896 96.864C263.992 106.933 268.003 115.68 271.928 123.104C269.539 124.299 267.619 124.896 266.168 124.896C263.608 124.896 261.859 124.043 260.92 122.336C260.408 121.141 257.891 114.912 253.368 103.648C246.029 103.819 241.592 103.904 240.056 103.904ZM320.67 115.04C322.547 116.917 324.595 117.856 326.814 117.856C327.241 117.856 328.137 117.771 329.502 117.6C330.099 118.795 330.398 119.904 330.398 120.928C330.398 123.573 327.625 124.896 322.078 124.896C319.603 124.896 317.214 124 314.91 122.208C312.606 120.331 310.387 117.685 308.254 114.272C306.121 110.773 304.457 107.872 303.262 105.568C302.153 103.179 300.787 100.149 299.166 96.48C297.545 96.1387 296.734 95.2853 296.734 93.92C296.734 93.0667 297.033 91.7867 297.63 90.08C299.507 90.5067 301.129 90.72 302.494 90.72C306.419 90.72 309.619 89.5253 312.094 87.136C314.569 84.6613 315.806 81.3333 315.806 77.152C315.806 72.2027 314.441 68.7467 311.71 66.784C308.979 64.8213 304.798 63.84 299.166 63.84C298.654 63.84 296.094 63.968 291.486 64.224C291.827 68.1493 291.998 74.848 291.998 84.32V104.032C291.998 112.907 292.638 119.435 293.918 123.616C292.467 124.043 290.59 124.256 288.286 124.256C285.982 124.256 284.403 123.829 283.55 122.976C282.782 122.123 282.398 120.672 282.398 118.624C282.398 117.6 282.441 114.997 282.526 110.816C282.611 106.635 282.654 103.349 282.654 100.96V80.992C282.654 71.6053 282.185 63.968 281.246 58.08C285.854 57.312 291.23 56.928 297.374 56.928C316.489 56.928 326.046 63.6267 326.046 77.024C326.046 82.3147 324.51 86.624 321.438 89.952C318.451 93.28 314.441 95.4987 309.406 96.608C314.611 106.592 318.366 112.736 320.67 115.04ZM355.498 93.152V104.032C355.498 112.992 356.181 119.563 357.546 123.744C355.839 124.256 353.962 124.512 351.914 124.512C349.61 124.512 348.031 124.085 347.178 123.232C346.41 122.379 346.026 120.971 346.026 119.008C346.026 117.899 346.069 115.253 346.154 111.072C346.239 106.891 346.282 103.648 346.282 101.344V81.248C346.282 71.6053 345.77 64.0107 344.746 58.464C353.109 57.8667 360.917 57.568 368.17 57.568C378.495 57.568 384.298 58.08 385.578 59.104C386.261 59.7013 386.602 60.6827 386.602 62.048C386.602 63.7547 386.303 65.376 385.706 66.912C381.61 65.5467 375.21 64.864 366.506 64.864C363.69 64.864 359.893 64.9493 355.114 65.12C355.37 67.424 355.498 71.6907 355.498 77.92V85.984H363.69C369.407 85.984 373.503 85.856 375.978 85.6C376.234 86.2827 376.362 87.264 376.362 88.544C376.362 90.6773 375.807 92 374.698 92.512C373.589 92.9387 371.071 93.152 367.146 93.152H355.498ZM436.545 115.04C438.422 116.917 440.47 117.856 442.689 117.856C443.116 117.856 444.012 117.771 445.377 117.6C445.974 118.795 446.273 119.904 446.273 120.928C446.273 123.573 443.5 124.896 437.953 124.896C435.478 124.896 433.089 124 430.785 122.208C428.481 120.331 426.262 117.685 424.129 114.272C421.996 110.773 420.332 107.872 419.137 105.568C418.028 103.179 416.662 100.149 415.041 96.48C413.42 96.1387 412.609 95.2853 412.609 93.92C412.609 93.0667 412.908 91.7867 413.505 90.08C415.382 90.5067 417.004 90.72 418.369 90.72C422.294 90.72 425.494 89.5253 427.969 87.136C430.444 84.6613 431.681 81.3333 431.681 77.152C431.681 72.2027 430.316 68.7467 427.585 66.784C424.854 64.8213 420.673 63.84 415.041 63.84C414.529 63.84 411.969 63.968 407.361 64.224C407.702 68.1493 407.873 74.848 407.873 84.32V104.032C407.873 112.907 408.513 119.435 409.793 123.616C408.342 124.043 406.465 124.256 404.161 124.256C401.857 124.256 400.278 123.829 399.425 122.976C398.657 122.123 398.273 120.672 398.273 118.624C398.273 117.6 398.316 114.997 398.401 110.816C398.486 106.635 398.529 103.349 398.529 100.96V80.992C398.529 71.6053 398.06 63.968 397.121 58.08C401.729 57.312 407.105 56.928 413.249 56.928C432.364 56.928 441.921 63.6267 441.921 77.024C441.921 82.3147 440.385 86.624 437.313 89.952C434.326 93.28 430.316 95.4987 425.281 96.608C430.486 106.592 434.241 112.736 436.545 115.04ZM470.989 65.12C471.245 67.168 471.373 73.7813 471.373 84.96H479.565C485.282 84.96 489.378 84.832 491.853 84.576C492.109 85.2587 492.237 86.1973 492.237 87.392C492.237 89.0987 491.853 90.2933 491.085 90.976C490.402 91.5733 489.293 91.9147 487.757 92C485.965 92.0853 483.533 92.128 480.461 92.128H471.373C471.373 105.867 471.629 114.144 472.141 116.96C475.213 117.131 477.688 117.216 479.565 117.216C490.829 117.216 498.21 116.448 501.709 114.912C502.306 116.448 502.605 118.069 502.605 119.776C502.605 121.141 502.264 122.123 501.581 122.72C500.301 123.659 494.498 124.128 484.173 124.128C482.125 124.128 478.84 124.085 474.317 124C469.794 124 467.448 124 467.277 124C465.144 123.915 463.693 123.445 462.925 122.592C462.242 121.739 461.901 120.331 461.901 118.368C461.901 117.173 461.944 114.571 462.029 110.56C462.114 106.464 462.157 103.264 462.157 100.96V81.376C462.157 71.648 461.645 64.0107 460.621 58.464C468.984 57.8667 476.792 57.568 484.045 57.568C494.37 57.568 500.173 58.08 501.453 59.104C502.136 59.7013 502.477 60.6827 502.477 62.048C502.477 63.7547 502.178 65.376 501.581 66.912C497.485 65.5467 491.085 64.864 482.381 64.864C479.053 64.864 475.256 64.9493 470.989 65.12ZM551.151 72.288C549.956 69.8987 547.866 67.936 544.879 66.4C541.892 64.7787 538.778 63.968 535.535 63.968C532.122 63.968 529.178 64.864 526.703 66.656C524.314 68.3627 523.119 70.88 523.119 74.208C523.119 76.8533 524.015 79.0293 525.807 80.736C527.599 82.3573 529.818 83.5093 532.463 84.192C535.194 84.8747 538.095 85.6853 541.167 86.624C544.324 87.5627 547.226 88.5867 549.871 89.696C552.602 90.72 554.863 92.5547 556.655 95.2C558.447 97.76 559.343 100.96 559.343 104.8C559.343 111.712 556.911 116.789 552.047 120.032C547.268 123.275 541.423 124.896 534.511 124.896C528.879 124.896 523.887 123.957 519.535 122.08C515.268 120.203 513.135 117.899 513.135 115.168C513.135 113.035 515.055 111.029 518.895 109.152C520.26 111.712 522.65 113.803 526.063 115.424C529.562 117.045 533.146 117.856 536.815 117.856C540.57 117.856 543.812 116.96 546.543 115.168C549.359 113.291 550.767 110.645 550.767 107.232C550.767 104.245 549.53 101.899 547.055 100.192C544.58 98.4 541.551 97.0773 537.967 96.224C534.468 95.3707 530.927 94.3893 527.343 93.28C523.844 92.0853 520.858 90.1227 518.383 87.392C515.908 84.576 514.671 80.9067 514.671 76.384C514.671 70.0693 516.847 65.248 521.199 61.92C525.551 58.592 531.098 56.928 537.839 56.928C542.788 56.928 547.311 57.7813 551.407 59.488C555.588 61.1093 557.679 63.4133 557.679 66.4C557.679 69.472 555.503 71.4347 551.151 72.288ZM577.916 100.96V80.992C577.916 72.1173 577.66 64.4373 577.148 57.952C578.684 57.696 580.305 57.568 582.012 57.568C586.023 57.568 588.028 58.848 588.028 61.408C588.028 61.7493 587.943 63.1147 587.772 65.504C587.601 67.8933 587.431 70.88 587.26 74.464C587.175 78.048 587.132 81.4613 587.132 84.704C590.716 84.7893 596.092 84.832 603.26 84.832C610.172 84.832 615.377 84.7893 618.876 84.704V80.608C618.791 71.648 618.535 64.096 618.108 57.952C619.644 57.696 621.265 57.568 622.972 57.568C626.983 57.568 628.988 58.848 628.988 61.408C628.988 61.7493 628.903 63.072 628.732 65.376C628.561 67.68 628.391 70.5387 628.22 73.952C628.135 77.3653 628.092 80.608 628.092 83.68V103.776C628.092 112.736 628.775 119.307 630.14 123.488C628.86 124 626.983 124.256 624.508 124.256C622.204 124.256 620.625 123.829 619.772 122.976C619.004 122.123 618.62 120.672 618.62 118.624C618.62 117.6 618.663 114.997 618.748 110.816C618.833 106.635 618.876 103.349 618.876 100.96V91.488C615.292 91.5733 610.044 91.616 603.132 91.616C595.964 91.616 590.631 91.5733 587.132 91.488V103.776C587.132 112.736 587.815 119.307 589.18 123.488C587.9 124 586.023 124.256 583.548 124.256C581.244 124.256 579.665 123.829 578.812 122.976C578.044 122.123 577.66 120.672 577.66 118.624C577.66 117.6 577.703 114.997 577.788 110.816C577.873 106.635 577.916 103.349 577.916 100.96Z" fill="white"/>
</svg>
